REM DIRINDEX 1\2,1\3
REM DIRNAME folder01,folder02,folder03
TITLE ""
FILE "3181-3200.mp3" MP3
  TRACK 01 AUDIO
    TITLE "0:"
    INDEX 01 00:00:00
  TRACK 02 AUDIO
    TITLE "2:cjc039_5361"
    INDEX 01 00:00:23
  TRACK 03 AUDIO
    TITLE "0:"
    INDEX 01 00:01:30
  TRACK 04 AUDIO
    TITLE "3:cjc039_5362"
    INDEX 01 00:02:06
  TRACK 05 AUDIO
    TITLE "0:"
    INDEX 01 00:05:20
  TRACK 06 AUDIO
    TITLE "2:cjc039_5363"
    INDEX 01 00:06:69
  TRACK 07 AUDIO
    TITLE "0:"
    INDEX 01 00:08:32
  TRACK 08 AUDIO
    TITLE "3:cjc039_5364"
    INDEX 01 00:08:72
  TRACK 09 AUDIO
    TITLE "0:"
    INDEX 01 00:13:16
  TRACK 10 AUDIO
    TITLE "2:cjc039_5365"
    INDEX 01 00:14:56
  TRACK 11 AUDIO
    TITLE "0:"
    INDEX 01 00:15:70
  TRACK 12 AUDIO
    TITLE "3:cjc039_5366"
    INDEX 01 00:16:48
  TRACK 13 AUDIO
    TITLE "0:"
    INDEX 01 00:21:21
  TRACK 14 AUDIO
    TITLE "2:cjc039_5367"
    INDEX 01 00:22:72
  TRACK 15 AUDIO
    TITLE "0:"
    INDEX 01 00:24:41
  TRACK 16 AUDIO
    TITLE "3:cjc039_5368"
    INDEX 01 00:25:15
  TRACK 17 AUDIO
    TITLE "0:"
    INDEX 01 00:29:36
  TRACK 18 AUDIO
    TITLE "2:cjc039_5369"
    INDEX 01 00:31:10
  TRACK 19 AUDIO
    TITLE "0:"
    INDEX 01 00:32:27
  TRACK 20 AUDIO
    TITLE "3:cjc039_5370"
    INDEX 01 00:33:03
  TRACK 21 AUDIO
    TITLE "0:"
    INDEX 01 00:37:20
  TRACK 22 AUDIO
    TITLE "2:cjc039_5371"
    INDEX 01 00:38:73
  TRACK 23 AUDIO
    TITLE "0:"
    INDEX 01 00:40:19
  TRACK 24 AUDIO
    TITLE "3:cjc039_5372"
    INDEX 01 00:40:72
  TRACK 25 AUDIO
    TITLE "0:"
    INDEX 01 00:45:02
  TRACK 26 AUDIO
    TITLE "2:cjc039_5373"
    INDEX 01 00:46:53
  TRACK 27 AUDIO
    TITLE "0:"
    INDEX 01 00:47:64
  TRACK 28 AUDIO
    TITLE "3:cjc039_5374"
    INDEX 01 00:48:42
  TRACK 29 AUDIO
    TITLE "0:"
    INDEX 01 00:52:08
  TRACK 30 AUDIO
    TITLE "2:cjc039_5375"
    INDEX 01 00:53:58
  TRACK 31 AUDIO
    TITLE "0:"
    INDEX 01 00:55:18
  TRACK 32 AUDIO
    TITLE "3:cjc039_5376"
    INDEX 01 00:55:71
  TRACK 33 AUDIO
    TITLE "0:"
    INDEX 01 00:59:67
  TRACK 34 AUDIO
    TITLE "2:cjc039_5377"
    INDEX 01 01:01:44
  TRACK 35 AUDIO
    TITLE "0:"
    INDEX 01 01:02:54
  TRACK 36 AUDIO
    TITLE "3:cjc039_5378"
    INDEX 01 01:03:33
  TRACK 37 AUDIO
    TITLE "0:"
    INDEX 01 01:06:73
  TRACK 38 AUDIO
    TITLE "2:cjc039_5379"
    INDEX 01 01:08:50
  TRACK 39 AUDIO
    TITLE "0:"
    INDEX 01 01:10:04
  TRACK 40 AUDIO
    TITLE "3:cjc039_5380"
    INDEX 01 01:10:51
  TRACK 41 AUDIO
    TITLE "0:"
    INDEX 01 01:16:36
  TRACK 42 AUDIO
    TITLE "2:cjc039_5381"
    INDEX 01 01:18:13
  TRACK 43 AUDIO
    TITLE "0:"
    INDEX 01 01:19:19
  TRACK 44 AUDIO
    TITLE "3:cjc039_5382"
    INDEX 01 01:19:72
  TRACK 45 AUDIO
    TITLE "0:"
    INDEX 01 01:23:15
  TRACK 46 AUDIO
    TITLE "2:cjc039_5383"
    INDEX 01 01:24:59
  TRACK 47 AUDIO
    TITLE "0:"
    INDEX 01 01:26:30
  TRACK 48 AUDIO
    TITLE "3:cjc039_5384"
    INDEX 01 01:27:03
  TRACK 49 AUDIO
    TITLE "0:"
    INDEX 01 01:31:59
  TRACK 50 AUDIO
    TITLE "2:cjc039_5385"
    INDEX 01 01:33:33
  TRACK 51 AUDIO
    TITLE "0:"
    INDEX 01 01:34:40
  TRACK 52 AUDIO
    TITLE "3:cjc039_5386"
    INDEX 01 01:35:22
  TRACK 53 AUDIO
    TITLE "0:"
    INDEX 01 01:38:22
  TRACK 54 AUDIO
    TITLE "2:cjc039_5387"
    INDEX 01 01:40:03
  TRACK 55 AUDIO
    TITLE "0:"
    INDEX 01 01:41:20
  TRACK 56 AUDIO
    TITLE "3:cjc039_5388"
    INDEX 01 01:41:67
  TRACK 57 AUDIO
    TITLE "0:"
    INDEX 01 01:44:72
  TRACK 58 AUDIO
    TITLE "2:cjc039_5389"
    INDEX 01 01:46:49
  TRACK 59 AUDIO
    TITLE "0:"
    INDEX 01 01:47:64
  TRACK 60 AUDIO
    TITLE "3:cjc039_5390"
    INDEX 01 01:48:46
  TRACK 61 AUDIO
    TITLE "0:"
    INDEX 01 01:52:65
  TRACK 62 AUDIO
    TITLE "2:cjc039_5391"
    INDEX 01 01:54:42
  TRACK 63 AUDIO
    TITLE "0:"
    INDEX 01 01:55:48
  TRACK 64 AUDIO
    TITLE "3:cjc039_5392"
    INDEX 01 01:56:22
  TRACK 65 AUDIO
    TITLE "0:"
    INDEX 01 02:00:16
  TRACK 66 AUDIO
    TITLE "2:cjc039_5393"
    INDEX 01 02:01:64
  TRACK 67 AUDIO
    TITLE "0:"
    INDEX 01 02:03:10
  TRACK 68 AUDIO
    TITLE "3:cjc039_5394"
    INDEX 01 02:03:67
  TRACK 69 AUDIO
    TITLE "0:"
    INDEX 01 02:06:69
  TRACK 70 AUDIO
    TITLE "2:cjc039_5395"
    INDEX 01 02:08:45
  TRACK 71 AUDIO
    TITLE "0:"
    INDEX 01 02:09:71
  TRACK 72 AUDIO
    TITLE "3:cjc039_5396"
    INDEX 01 02:10:47
  TRACK 73 AUDIO
    TITLE "0:"
    INDEX 01 02:14:61
  TRACK 74 AUDIO
    TITLE "2:cjc039_5397"
    INDEX 01 02:16:34
  TRACK 75 AUDIO
    TITLE "0:"
    INDEX 01 02:17:45
  TRACK 76 AUDIO
    TITLE "3:cjc039_5398"
    INDEX 01 02:18:21
  TRACK 77 AUDIO
    TITLE "0:"
    INDEX 01 02:22:17
  TRACK 78 AUDIO
    TITLE "2:cjc039_5399"
    INDEX 01 02:23:62
  TRACK 79 AUDIO
    TITLE "0:"
    INDEX 01 02:24:73
  TRACK 80 AUDIO
    TITLE "3:cjc039_5400"
    INDEX 01 02:25:51
  TRACK 81 AUDIO
    TITLE "0:"
    INDEX 01 02:29:27
